<?xml version="1.0" encoding="utf-8"?>
<!-- Generator: Adobe Illustrator 21.1.0, SVG Export Plug-In . SVG Version: 6.00 Build 0)  -->
<svg version="1.1" id="Layer_1" xmlns="http://www.w3.org/2000/svg" xmlns:xlink="http://www.w3.org/1999/xlink" x="0px" y="0px"
	 viewBox="0 0 1307.1 220" style="enable-background:new 0 0 1307.1 220;" xml:space="preserve">
<style type="text/css">
	.st0{fill:#000D47;}
	.st1{fill:#6179FF;}
</style>
<title>logo_dark</title>
<path class="st0" d="M504.2,47.1c-25.5,0.8-45.5,22.4-45.5,47.9v58.3c0,1.4,1.1,2.5,2.5,2.5h14.1c1.4,0,2.5-1.1,2.5-2.5V94.8
	c0-15,11.5-27.8,26.4-28.6c15.3-0.8,28.4,11.1,29.2,26.4c0,0.5,0,0.9,0,1.4v59.3c0,1.4,1.1,2.5,2.5,2.5H550c1.4,0,2.5-1.1,2.5-2.5
	V94c0-26-21.1-47-47.1-46.9C505,47.1,504.6,47.1,504.2,47.1z"/>
<path class="st0" d="M623.4,47.6c-29.9-1.3-55.3,21.9-56.6,51.8s21.9,55.3,51.8,56.6c13.7,0.6,27.2-4,37.6-12.9v10.1
	c0,1.4,1.1,2.5,2.5,2.5h14.1c1.4,0,2.5-1.1,2.5-2.5v-50.3C675.3,73.7,652.6,48.9,623.4,47.6z M621.1,137
	c-19.4,0-35.2-15.7-35.2-35.2c0-19.4,15.7-35.2,35.2-35.2c19.4,0,35.2,15.7,35.2,35.2l0,0C656.2,121.2,640.5,137,621.1,137z"/>
<path class="st0" d="M748.1,47.6c-29.9-1.3-55.3,21.9-56.6,51.8s21.9,55.3,51.8,56.6c13.7,0.6,27.2-4,37.6-12.9v21.5
	c0,19.7-16.1,36.5-35.8,36.1c-11.2-0.2-21.6-5.7-28-14.8c-0.8-1-2.2-1.3-3.3-0.6l-12,7.4c-1.2,0.7-1.5,2.3-0.8,3.5
	c0,0,0,0.1,0.1,0.1c9.9,14.5,26.2,23.3,43.7,23.6c30.4,0.6,55.3-24.9,55.3-55.4V103C800,73.7,777.3,48.9,748.1,47.6z M745.7,137
	c-19.4,0-35.2-15.7-35.2-35.2c0-19.4,15.7-35.2,35.2-35.2c19.4,0,35.2,15.7,35.2,35.2l0,0C780.9,121.2,765.1,137,745.7,137z"/>
<path class="st0" d="M292.5,47.6c-29.9-1.3-55.3,21.9-56.6,51.8s21.9,55.3,51.8,56.6c13.7,0.6,27.2-4,37.6-12.9v21.5
	c0,19.7-16.1,36.5-35.9,36.1c-11.2-0.2-21.6-5.7-28-14.8c-0.8-1-2.2-1.3-3.3-0.6l-12,7.4c-1.2,0.7-1.5,2.3-0.8,3.5
	c0,0,0,0.1,0.1,0.1c9.8,14.5,26.1,23.2,43.6,23.6c30.4,0.6,55.3-24.9,55.3-55.4V103C344.4,73.7,321.7,48.9,292.5,47.6z M290.1,137
	c-19.4,0-35.2-15.7-35.2-35.2c0-19.4,15.7-35.2,35.2-35.2s35.2,15.7,35.2,35.2l0,0C325.3,121.2,309.5,137,290.1,137z"/>
<path class="st0" d="M215.6,48.3l-14.1,0.2c-1.4,0-2.4,1.1-2.4,2.5v56.4c0,15.4-12.5,27.8-27.8,27.8c-0.4,0-0.9,0-1.3,0
	c-14.9-0.7-26.4-13.6-26.4-28.6V51.1c0-1.4-1.1-2.5-2.5-2.5l0,0H127c-1.4,0-2.5,1.1-2.5,2.5v55.4c0,25.5,20,47.1,45.5,47.9
	c25.9,0.7,47.6-19.7,48.3-45.7c0-0.4,0-0.8,0-1.2V50.8C218.1,49.4,217,48.3,215.6,48.3L215.6,48.3z"/>
<path class="st0" d="M405.1,92.7c-13.9-3.8-22.3-6.7-22.3-14.2c0-10.8,11.9-14.8,19.9-14.8c9.1,0,14.6,2.1,21.8,6.5
	c1.2,0.7,2.6,0.4,3.4-0.8l6.6-10.2c0.7-1.2,0.4-2.7-0.7-3.4h-0.1c-9.5-5.7-20.4-8.8-31.5-8.7c-18,0-36.5,11.8-36.5,31.7
	c0,20.2,18,25.1,33.8,29.4c15,4.1,24.1,7.2,24.1,16.6c0,8.7-8.9,15.2-20.7,15.2c-11.4,0-20.7-5.1-27-10c-1.1-0.8-2.6-0.7-3.4,0.4
	l-7.8,9.5c-0.9,1.1-0.7,2.6,0.4,3.5c10.2,8.6,23.9,13.3,38.7,13.3c21.5,0,37.2-13.7,37.2-32.6C440.8,102.6,421,97.1,405.1,92.7z"/>
<path class="st0" d="M60.6,47.9c-15-1.8-30,2.8-41.5,12.6V2.7c0-1.4-1.1-2.5-2.5-2.5c-0.5,0-0.9,0.1-1.3,0.4L1.2,9.1
	C0.4,9.6,0,10.4,0,11.3v89.5c0,29.3,22.7,54.1,51.9,55.3c30,1.3,55.3-22,56.5-51.9C109.6,75.8,88.8,51.3,60.6,47.9z M54.3,137
	c-19.4,0-35.2-15.7-35.2-35.2s15.7-35.2,35.2-35.2s35.2,15.7,35.2,35.2C89.4,121.2,73.7,137,54.3,137z"/>
<g>
	<path class="st1" d="M912,49.1c12.1,0,18.8,2.9,24,7.5c6,5.2,9.9,12.9,9.9,21.6c0,7-3.4,14.2-6.9,17.9c9.5,4.7,16.1,15.5,16.1,27.4
		c0,9-3.8,17.3-9.8,23.1c-6,6-14.2,9.6-28,9.6h-41.8V49.1H912z M896.3,90.4h14.5c6.4,0,9.3-1.5,11.5-3.8c1.8-2,3.1-4.7,3.1-7.7
		c0-2.9-1.2-5.7-3.1-7.6c-2.1-2.3-5-3.8-11.5-3.8h-14.5V90.4z M916.9,137.8c7.2,0,11.2-1.8,13.8-4.7c2.4-2.6,3.8-6,3.8-9.8
		s-1.4-7.2-3.8-9.8c-2.6-2.9-6.6-4.7-13.8-4.7h-20.7v29.1h20.7V137.8z"/>
	<path class="st1" d="M983.5,49.1h20.7v88.7h45.1v18.4h-65.8L983.5,49.1L983.5,49.1z"/>
	<path class="st1" d="M1124.6,47.6c33,0,55.8,24.6,55.8,55.1c0,30.4-22.8,55.1-55.8,55.1s-55.8-24.6-55.8-55.1
		C1068.7,72.2,1091.5,47.6,1124.6,47.6z M1124.6,139.4c20.2,0,35.2-16.5,35.2-36.7s-15-36.7-35.2-36.7s-35.2,16.5-35.2,36.7
		C1089.4,122.8,1104.4,139.4,1124.6,139.4z"/>
	<path class="st1" d="M1225.9,102.6c0,20.8,15.9,36.7,36.6,36.7c9.8,0,17.7-3.4,23.9-8.3v-23h-27.5V89.6h48.2v47.6
		c-9.5,12.1-25.4,20.5-45,20.5c-33.4,0-56.8-24.3-56.8-55.1s23.1-55.1,56.5-55.1c15.9,0,29.5,6,39.2,15.3l-13.3,14.1
		c-6.4-6.4-15.5-11-26-11C1241.2,65.9,1225.9,82.3,1225.9,102.6z"/>
</g>
</svg>
